<svg width="50" height="50" viewBox="0 0 50 50" fill="none" xmlns="http://www.w3.org/2000/svg">
<path d="M23.0957 0.0585938C20.498 0.341797 18.916 0.654297 17.0703 1.2793C9.65817 3.75 3.74997 9.6582 1.27927 17.0703C-0.664094 22.8711 -0.36136 29.5215 2.09958 35.0781C5.62497 43.0371 12.959 48.5645 21.582 49.7754C23.2617 50.0098 26.7383 50.0098 28.4179 49.7754C36.4258 48.6523 43.2031 43.916 47.0996 36.7188C50.2539 30.8789 50.8691 23.4863 48.7304 17.0801C45.7226 8.10547 37.8418 1.5332 28.5156 0.244141C27.4316 0.0976562 23.8965 -0.0292969 23.0957 0.0585938ZM28.3691 4.44336C32.7636 5.24414 36.6504 7.24609 39.6972 10.3027C42.7539 13.3496 44.7558 17.2266 45.5566 21.6309C45.8008 22.959 45.8593 26.123 45.664 27.5977C45.0683 32.1484 42.9394 36.4551 39.6972 39.6973C36.6308 42.7637 32.8027 44.7363 28.3203 45.5762C26.9922 45.8203 23.0078 45.8203 21.6797 45.5762C14.834 44.3066 9.38474 40.2539 6.34763 34.1797C2.39255 26.2695 3.99411 16.6113 10.3027 10.3027C13.6718 6.92383 18.0371 4.84375 22.9492 4.25781C23.7793 4.16016 27.5195 4.28711 28.3691 4.44336Z" fill="#2E2E38"/>
<path d="M15.6737 12.6367C14.9315 12.8223 14.2576 13.2129 13.701 13.7891C12.1092 15.4395 12.119 17.9395 13.7401 19.5898C14.619 20.4883 15.6053 20.8496 16.9237 20.7813C19.9022 20.625 21.699 17.4512 20.3416 14.7266C20.0487 14.1211 19.199 13.291 18.5447 12.959C17.6561 12.5195 16.6307 12.4023 15.6737 12.6367Z" fill="#2E2E38"/>
<path d="M32.4217 12.6074C31.7576 12.7344 30.9861 13.1738 30.41 13.7402C29.5115 14.6191 29.1502 15.6055 29.2186 16.9238C29.3748 19.9023 32.5486 21.6992 35.2732 20.3418C35.8885 20.0391 36.7088 19.1992 37.0408 18.5352C37.8514 16.9336 37.5096 14.9609 36.2107 13.7012C35.1756 12.7051 33.867 12.3242 32.4217 12.6074Z" fill="#2E2E38"/>
<path d="M13.7207 29.3848C13.0176 29.6973 12.5 30.4883 12.5 31.25C12.5 32.0117 13.0176 32.8027 13.7207 33.1152C14.0918 33.291 14.6777 33.3008 25 33.3008C35.3906 33.3008 35.9082 33.291 36.2793 33.1152C37.8906 32.373 37.8906 30.127 36.2793 29.3848C35.9082 29.209 35.3906 29.1992 25 29.1992C14.6777 29.1992 14.0918 29.209 13.7207 29.3848Z" fill="#2E2E38"/>
</svg>
