<svg width="50" height="50" viewBox="0 0 50 50" fill="none" xmlns="http://www.w3.org/2000/svg">
<g clip-path="url(#clip0)">
<path d="M25 50C18.3223 50 12.0442 47.3995 7.32227 42.6777C2.60049 37.9558 0 31.6777 0 25C0 18.3223 2.60049 12.0442 7.32227 7.32227C12.0442 2.60049 18.3223 0 25 0C31.6777 0 37.9558 2.60049 42.6777 7.32227C47.3995 12.0442 50 18.3223 50 25C50 31.6777 47.3995 37.9558 42.6777 42.6777C37.9558 47.3995 31.6777 50 25 50ZM25 3.90625C13.3688 3.90625 3.90625 13.3688 3.90625 25C3.90625 36.6312 13.3688 46.0938 25 46.0938C36.6312 46.0938 46.0938 36.6312 46.0938 25C46.0938 13.3688 36.6312 3.90625 25 3.90625ZM34.154 29.3152C33.2439 28.736 32.0367 29.0043 31.4577 29.9145C31.4336 29.9522 29.0029 33.6974 24.9023 33.6974C20.8018 33.6974 18.3711 29.9522 18.347 29.9145C17.7679 29.0044 16.5607 28.7361 15.6507 29.3152C14.7406 29.8943 14.4724 31.1016 15.0515 32.0115C15.1968 32.2398 18.6815 37.6036 24.9023 37.6036C31.1231 37.6036 34.6079 32.2399 34.7532 32.0115C35.3323 31.1015 35.0641 29.8943 34.154 29.3152ZM16.4062 16.1133C17.7546 16.1133 18.8477 17.2063 18.8477 18.5547C18.8477 19.903 17.7546 20.9961 16.4062 20.9961C15.0579 20.9961 13.9648 19.903 13.9648 18.5547C13.9648 17.2063 15.0579 16.1133 16.4062 16.1133ZM31.0547 18.5547C31.0547 19.903 32.1478 20.9961 33.4961 20.9961C34.8444 20.9961 35.9375 19.903 35.9375 18.5547C35.9375 17.2063 34.8444 16.1133 33.4961 16.1133C32.1478 16.1133 31.0547 17.2063 31.0547 18.5547Z" fill="#2E2E38"/>
</g>
<defs>
<clipPath id="clip0">
<rect width="50" height="50" fill="white"/>
</clipPath>
</defs>
</svg>
