<svg width="50" height="50" viewBox="0 0 50 50" fill="none" xmlns="http://www.w3.org/2000/svg">
<path d="M25 0C11.1929 0 0 11.1929 0 25C0 38.8071 11.1929 50 25 50C38.8071 50 50 38.8071 50 25C50 11.1929 38.8071 0 25 0ZM25 46.875C12.9187 46.875 3.125 37.0812 3.125 25C3.125 12.9187 12.9187 3.125 25 3.125C37.0812 3.125 46.875 12.9187 46.875 25C46.875 37.0812 37.0812 46.875 25 46.875Z" fill="#2E2E38"/>
<path d="M17.1875 20.3125C18.9134 20.3125 20.3125 18.9134 20.3125 17.1875C20.3125 15.4616 18.9134 14.0625 17.1875 14.0625C15.4616 14.0625 14.0625 15.4616 14.0625 17.1875C14.0625 18.9134 15.4616 20.3125 17.1875 20.3125Z" fill="#2E2E38"/>
<path d="M32.8125 20.3125C34.5384 20.3125 35.9375 18.9134 35.9375 17.1875C35.9375 15.4616 34.5384 14.0625 32.8125 14.0625C31.0866 14.0625 29.6875 15.4616 29.6875 17.1875C29.6875 18.9134 31.0866 20.3125 32.8125 20.3125Z" fill="#2E2E38"/>
<path d="M25 23.4375C17.2335 23.4375 10.9375 29.7335 10.9375 37.5H14.0625C14.0625 31.4594 18.9594 26.5625 25 26.5625C31.0406 26.5625 35.9375 31.4594 35.9375 37.5H39.0625C39.0625 29.7335 32.7665 23.4375 25 23.4375Z" fill="#2E2E38"/>
</svg>
